<!DOCTYPE svg PUBLIC "-//W3C//DTD SVG 1.1//EN" "http://www.w3.org/Graphics/SVG/1.1/DTD/svg11.dtd">
<!-- Uploaded to: SVG Repo, www.svgrepo.com, Transformed by: SVG Repo Mixer Tools -->
<svg height="800px" width="800px" version="1.1" id="Layer_1" xmlns="http://www.w3.org/2000/svg" xmlns:xlink="http://www.w3.org/1999/xlink" viewBox="0 0 512 512" xml:space="preserve" fill="#000000">
<g id="SVGRepo_bgCarrier" stroke-width="0"/>
<g id="SVGRepo_tracerCarrier" stroke-linecap="round" stroke-linejoin="round"/>
<g id="SVGRepo_iconCarrier"> <path style="fill:#BA68C8;" d="M122.435,122.435H50.087c-9.223,0-16.696-7.473-16.696-16.696V38.957 c0-9.223,7.473-16.696,16.696-16.696h72.348c9.223,0,16.696,7.473,16.696,16.696v66.783 C139.13,114.962,131.657,122.435,122.435,122.435z"/> <path style="fill:#EC407A;" d="M512,256V72.348c0-27.619-22.468-50.087-50.087-50.087H243.245 c-19.086,0-36.255,10.608-44.793,27.685c-0.006,0-0.006,0-0.006,0l-19.548,39.098H50.087C22.468,89.043,0,111.511,0,139.13V256H512z "/> <path style="fill:#EC407A;" d="M461.913,22.261H256V256h256V72.348C512,44.729,489.532,22.261,461.913,22.261z"/> <path style="fill:#BA68C8;" d="M0,222.609v217.043c0,27.619,22.468,50.087,50.087,50.087h411.826 c27.619,0,50.087-22.468,50.087-50.087V222.609H0z"/> <path style="fill:#BA68C8;" d="M256,489.739h205.913c27.619,0,50.087-22.468,50.087-50.087V222.609H256V489.739z"/> <path style="fill:#EDF0F2;" d="M256,422.957c-64.441,0-116.87-52.429-116.87-116.87s52.429-116.87,116.87-116.87 s116.87,52.429,116.87,116.87S320.441,422.957,256,422.957z"/> <path style="fill:#DAE1E6;" d="M372.87,306.087c0-64.441-52.429-116.87-116.87-116.87v233.739 C320.441,422.957,372.87,370.528,372.87,306.087z"/> <path style="fill:#BA68C8;" d="M256,222.609c-46.032,0-83.478,37.446-83.478,83.478s37.446,83.478,83.478,83.478 s83.478-37.446,83.478-83.478S302.032,222.609,256,222.609z"/> <path style="fill:#BA68C8;" d="M339.478,306.087c0-46.032-37.446-83.478-83.478-83.478v166.956 C302.032,389.565,339.478,352.119,339.478,306.087z"/> <path style="fill:#DAE1E6;" d="M428.522,189.217H322.783c-9.223,0-16.696-7.473-16.696-16.696v-66.783 c0-9.223,7.473-16.696,16.696-16.696h105.739c9.223,0,16.696,7.473,16.696,16.696v66.783 C445.217,181.744,437.744,189.217,428.522,189.217z"/> <g> <circle style="fill:#EDF0F2;" cx="89.043" cy="172.522" r="16.696"/> <path style="fill:#EDF0F2;" d="M189.217,189.217h-33.391c-9.223,0-16.696-7.473-16.696-16.696s7.473-16.696,16.696-16.696h33.391 c9.223,0,16.696,7.473,16.696,16.696S198.44,189.217,189.217,189.217z"/> </g> <path style="fill:#EC407A;" d="M256,356.174c-27.619,0-50.087-22.468-50.087-50.087S228.381,256,256,256 s50.087,22.468,50.087,50.087S283.619,356.174,256,356.174z"/> <path style="fill:#EC407A;" d="M306.087,306.087C306.087,278.468,283.619,256,256,256v100.174 C283.619,356.174,306.087,333.706,306.087,306.087z"/> <path style="fill:#EDF0F2;" d="M256,289.391c-9.206,0-16.696,7.49-16.696,16.696c0,9.206,7.49,16.696,16.696,16.696 s16.696-7.49,16.696-16.696C272.696,296.881,265.206,289.391,256,289.391z"/> <path style="fill:#DAE1E6;" d="M272.696,306.087c0-9.206-7.49-16.696-16.696-16.696v33.391 C265.206,322.783,272.696,315.293,272.696,306.087z"/> </g>
</svg>